# xmcd CD database file
#
# Track frame offsets:
#	150
#	12489
#	33038
#	55513
#	68905
#	97042
#	120034
#	146689
#	168134
#	190814
#	216776
#
# Disc length: 3112 seconds
#
# Revision: 0
# Processed by: cddbd v1.5.2PL0 Copyright (c) Steve Scherf et al.
# Submitted via: CDex 1.70beta2
#
DISCID=890c260b
DTITLE=Paolo Loveri Trio - 3 for 1
DYEAR=2010
DGENRE=Jazz
TTITLE0=3 for 1
TTITLE1=Fat Again
TTITLE2=Little Castle
TTITLE3=Quartiere Stella
TTITLE4=ML Samba
TTITLE5=But Not For Me
TTITLE6=Little Girl
TTITLE7=Tribute to an unknown hero
TTITLE8=Monday Morning
TTITLE9=Wes Drive
TTITLE10=The Red Box Tribe
EXTD=YEAR: 2010
EXTT0=
EXTT1=
EXTT2=
EXTT3=
EXTT4=
EXTT5=
EXTT6=
EXTT7=
EXTT8=
EXTT9=
EXTT10=
PLAYORDER=
